<svg data-v-423bf9ae="" xmlns="http://www.w3.org/2000/svg" viewBox="0 0 NaN NaN" class="iconLeft"><!----><!----><!----><g data-v-423bf9ae="" id="fafe751b-bf10-4a8b-bcaf-671b6429d5a9" fill="white" transform="matrix(5.381648957668713,0,0,5.381648957668713,-102.91785644176116,-25.959077632564522)"><path d="M1.76 4.51L1.76 4.51L1.76 4.51Q1.76 4.48 1.72 4.19L1.72 4.19L1.72 4.19Q1.68 3.91 1.63 3.55L1.63 3.55L1.63 3.55Q1.58 3.19 1.55 2.86L1.55 2.86L1.55 2.86Q1.51 2.52 1.53 2.39L1.53 2.39L1.53 2.39Q1.33 2.42 1.14 2.47L1.14 2.47L1.14 2.47Q0.95 2.52 0.78 2.58L0.78 2.58L0.71 2.67L0.71 2.67Q0.60 2.72 0.50 2.74L0.50 2.74L0.50 2.74Q0.41 2.77 0.29 2.77L0.29 2.77L0.29 2.77Q0.21 2.69 0.27 2.56L0.27 2.56L0.27 2.56Q0.32 2.44 0.43 2.32L0.43 2.32L0.43 2.32Q0.55 2.20 0.67 2.09L0.67 2.09L0.67 2.09Q0.80 1.99 0.85 1.95L0.85 1.95L0.85 1.95Q1.44 1.53 2.27 1.42L2.27 1.42L2.27 1.42Q3.09 1.32 3.95 1.43L3.95 1.43L3.95 1.43Q4.80 1.54 5.59 1.84L5.59 1.84L5.59 1.84Q6.37 2.14 6.89 2.53L6.89 2.53L6.89 2.53Q7.18 2.77 7.47 3.12L7.47 3.12L7.47 3.12Q7.76 3.47 7.93 3.87L7.93 3.87L7.93 3.87Q8.11 4.27 8.14 4.70L8.14 4.70L8.14 4.70Q8.18 5.12 7.98 5.52L7.98 5.52L7.98 5.52Q7.62 6.27 7.08 6.89L7.08 6.89L7.08 6.89Q6.54 7.50 5.88 8.01L5.88 8.01L5.88 8.01Q5.22 8.51 4.49 8.90L4.49 8.90L4.49 8.90Q3.75 9.28 2.98 9.58L2.98 9.58L2.98 9.58Q2.32 9.81 1.68 9.99L1.68 9.99L1.68 9.99Q1.04 10.16 0.42 10.47L0.42 10.47L0.42 10.47Q0.06 10.64 0.22 10.28L0.22 10.28L0.22 10.28Q0.38 10.00 0.62 9.75L0.62 9.75L0.62 9.75Q0.87 9.51 1.19 9.44L1.19 9.44L1.19 9.44Q1.51 9.28 1.86 9.18L1.86 9.18L1.86 9.18Q1.79 8.86 1.79 8.50L1.79 8.50L1.79 8.50Q1.78 8.13 1.79 7.76L1.79 7.76L1.79 7.76Q1.81 7.39 1.83 7.03L1.83 7.03L1.83 7.03Q1.86 6.66 1.86 6.36L1.86 6.36L1.86 6.36Q1.86 5.91 1.83 5.44L1.83 5.44L1.83 5.44Q1.81 4.97 1.76 4.51ZM5.17 3.25L5.40 3.02L5.40 3.02Q4.89 2.74 4.30 2.59L4.30 2.59L4.30 2.59Q3.72 2.44 3.12 2.37L3.12 2.37L3.12 2.52L3.12 2.52Q3.12 3.32 3.16 4.12L3.16 4.12L3.16 4.12Q3.19 4.72 3.24 5.32L3.24 5.32L3.24 5.32Q3.29 5.92 3.36 6.51L3.36 6.51L3.36 6.51Q3.40 6.87 3.50 7.34L3.50 7.34L3.50 7.34Q3.60 7.81 3.63 8.16L3.63 8.16L3.63 8.16Q3.64 8.27 3.62 8.41L3.62 8.41L3.62 8.41Q3.60 8.54 3.57 8.68L3.57 8.68L3.57 8.68Q4.10 8.48 4.70 8.22L4.70 8.22L4.70 8.22Q5.29 7.95 5.81 7.59L5.81 7.59L5.81 7.57L5.81 7.57Q5.84 7.41 5.84 7.28L5.84 7.28L5.84 7.28Q5.85 7.15 5.87 7.05L5.87 7.05L5.87 7.05Q5.88 6.94 5.88 6.82L5.88 6.82L5.88 6.82Q5.88 6.69 5.88 6.52L5.88 6.52L5.88 6.52Q5.85 5.67 5.64 4.87L5.64 4.87L5.64 4.87Q5.43 4.06 5.17 3.25L5.17 3.25ZM12.84 6.72L12.95 6.61L12.95 6.61Q12.92 6.34 12.85 6.03L12.85 6.03L12.85 6.03Q12.78 5.71 12.84 5.45L12.84 5.45L12.84 5.42L12.85 5.40L12.85 5.40Q12.85 5.38 12.87 5.36L12.87 5.36L12.87 5.36Q12.91 5.25 13.01 5.11L13.01 5.11L13.01 5.11Q13.10 4.97 13.22 4.84L13.22 4.84L13.22 4.84Q13.34 4.72 13.48 4.64L13.48 4.64L13.48 4.64Q13.62 4.56 13.76 4.59L13.76 4.59L13.76 4.59Q13.85 4.79 13.90 5.00L13.90 5.00L13.90 5.00Q13.96 5.21 14 5.43L14 5.43L14 5.43Q14.07 5.39 14.13 5.39L14.13 5.39L14.13 5.39Q14.20 5.39 14.22 5.46L14.22 5.46L14.24 5.45L14.24 5.45Q14.24 5.46 14.22 5.46L14.22 5.46L14.22 5.46Q14.22 5.46 14.22 5.47L14.22 5.47L14.24 5.49L14.24 5.49Q14.27 5.85 14.25 6.21L14.25 6.21L14.25 6.21Q14.24 6.57 14.24 6.93L14.24 6.93L14.24 6.93Q14.35 7.74 14.41 8.54L14.41 8.54L14.41 8.54Q14.48 9.34 14.36 10.15L14.36 10.15L14.36 10.16L14.36 10.18L14.36 10.18Q14.35 10.18 14.35 10.19L14.35 10.19L14.35 10.19Q14.31 10.29 14.20 10.45L14.20 10.45L14.20 10.45Q14.08 10.61 13.94 10.75L13.94 10.75L13.94 10.75Q13.80 10.89 13.66 10.96L13.66 10.96L13.66 10.96Q13.52 11.03 13.44 10.95L13.44 10.95L13.44 10.95Q13.41 10.79 13.41 10.65L13.41 10.65L13.41 10.65Q13.40 10.51 13.38 10.37L13.38 10.37L13.38 10.37Q13.36 10.37 13.34 10.38L13.34 10.38L13.34 10.38Q13.33 10.39 13.31 10.39L13.31 10.39L13.30 10.40L13.30 10.40Q13.16 10.37 13.10 10.36L13.10 10.36L13.10 10.36Q12.95 10.47 12.85 10.50L12.85 10.50L12.85 10.50Q12.74 10.53 12.77 10.35L12.77 10.35L12.77 10.33L12.77 10.33Q12.64 10.35 12.26 10.41L12.26 10.41L12.26 10.41Q11.87 10.47 11.41 10.53L11.41 10.53L11.41 10.53Q10.95 10.58 10.51 10.60L10.51 10.60L10.51 10.60Q10.08 10.61 9.88 10.54L9.88 10.54L9.88 10.54Q9.81 10.56 9.73 10.56L9.73 10.56L9.73 10.56Q9.65 10.57 9.58 10.57L9.58 10.57L9.58 10.57Q9.52 10.51 9.55 10.43L9.55 10.43L9.55 10.43Q9.56 10.40 9.57 10.37L9.57 10.37L9.57 10.37Q9.58 10.35 9.59 10.32L9.59 10.32L9.59 10.32Q9.38 10.26 9.25 10.08L9.25 10.08L9.25 10.08Q9.13 9.90 9.04 9.68L9.04 9.68L9.04 9.68Q8.96 9.46 8.93 9.23L8.93 9.23L8.93 9.23Q8.89 9.00 8.88 8.83L8.88 8.83L8.88 8.83Q8.79 8.06 8.88 7.28L8.88 7.28L8.88 7.28Q8.81 6.92 8.78 6.55L8.78 6.55L8.78 6.55Q8.75 6.19 8.78 5.80L8.78 5.80L8.78 5.78L8.78 5.78Q8.78 5.75 8.79 5.74L8.79 5.74L8.79 5.74Q8.79 5.73 8.79 5.70L8.79 5.70L8.79 5.70Q8.83 5.59 8.93 5.45L8.93 5.45L8.93 5.45Q9.02 5.31 9.14 5.18L9.14 5.18L9.14 5.18Q9.25 5.05 9.39 4.98L9.39 4.98L9.39 4.98Q9.52 4.90 9.66 4.91L9.66 4.91L9.66 4.91Q9.90 4.63 10.25 4.49L10.25 4.49L10.25 4.49Q10.32 4.47 10.37 4.46L10.37 4.46L10.37 4.46Q10.42 4.45 10.44 4.55L10.44 4.55L10.44 4.55Q10.46 4.68 10.42 4.82L10.42 4.82L10.42 4.82Q10.39 4.97 10.35 5.12L10.35 5.12L10.35 5.12Q10.51 4.98 10.64 4.96L10.64 4.96L10.64 4.96Q10.77 4.93 10.71 5.17L10.71 5.17L10.71 5.17Q10.58 5.52 10.55 5.94L10.55 5.94L10.55 5.94Q10.51 6.37 10.54 6.82L10.54 6.82L10.54 6.82Q10.57 7.28 10.64 7.72L10.64 7.72L10.64 7.72Q10.71 8.16 10.78 8.54L10.78 8.54L10.78 8.54Q10.78 8.54 10.81 8.63L10.81 8.63L10.81 8.63Q10.84 8.72 10.89 8.85L10.89 8.85L10.89 8.85Q10.93 8.97 10.99 9.12L10.99 9.12L10.99 9.12Q11.05 9.27 11.10 9.39L11.10 9.39L11.10 9.39Q11.55 9.34 12.03 9.35L12.03 9.35L12.03 9.35Q12.52 9.35 12.92 9.32L12.92 9.32L12.92 9.32Q12.99 9.02 13.04 8.71L13.04 8.71L13.04 8.71Q13.09 8.41 13.10 8.11L13.10 8.11L13.10 8.11Q13.08 7.88 13.06 7.67L13.06 7.67L13.06 7.67Q13.05 7.45 13.02 7.25L13.02 7.25L13.02 7.25Q12.99 7.13 12.95 6.99L12.95 6.99L12.95 6.99Q12.91 6.86 12.84 6.72L12.84 6.72ZM15.40 7.41L15.40 7.41L15.40 7.41Q15.36 6.65 15.37 5.92L15.37 5.92L15.37 5.92Q15.39 5.18 15.44 4.42L15.44 4.42L15.44 4.42Q15.44 4.31 15.44 4.19L15.44 4.19L15.44 4.19Q15.44 4.06 15.46 3.95L15.46 3.95L15.46 3.95Q15.48 3.46 15.48 2.90L15.48 2.90L15.48 2.90Q15.47 2.34 15.57 1.85L15.57 1.85L15.57 1.85Q15.60 1.78 15.74 1.60L15.74 1.60L15.74 1.60Q15.88 1.43 16.03 1.27L16.03 1.27L16.03 1.27Q16.06 1.20 16.09 1.14L16.09 1.14L16.09 1.14Q16.11 1.08 16.16 1.01L16.16 1.01L16.16 1.01Q16.30 0.81 16.49 0.62L16.49 0.62L16.49 0.62Q16.67 0.42 16.93 0.35L16.93 0.35L17.00 0.35L17.00 0.35Q17.07 0.38 17.08 0.43L17.08 0.43L17.08 0.43Q17.14 0.77 17.07 1.13L17.07 1.13L17.07 1.13Q17.01 1.50 16.95 1.82L16.95 1.82L16.95 1.82Q16.86 2.45 16.74 3.07L16.74 3.07L16.74 3.07Q16.63 3.68 16.53 4.31L16.53 4.31L16.53 4.31Q16.52 5.57 16.64 6.80L16.64 6.80L16.64 6.80Q16.76 8.04 16.98 9.25L16.98 9.25L17.05 9.20L17.05 9.20Q17.05 9.25 17.05 9.30L17.05 9.30L17.05 9.30Q17.04 9.34 17.04 9.39L17.04 9.39L17.04 9.39Q17.01 9.48 16.91 9.63L16.91 9.63L16.91 9.63Q16.81 9.77 16.67 9.93L16.67 9.93L16.67 9.93Q16.69 10.00 16.69 10.08L16.69 10.08L16.69 10.08Q16.69 10.15 16.69 10.22L16.69 10.22L16.69 10.22Q16.69 10.28 16.70 10.30L16.70 10.30L16.70 10.30Q16.67 10.32 16.67 10.33L16.67 10.33L16.67 10.33Q16.66 10.35 16.63 10.36L16.63 10.36L16.63 10.36Q16.58 10.46 16.46 10.61L16.46 10.61L16.46 10.61Q16.35 10.75 16.23 10.88L16.23 10.88L16.23 10.88Q16.10 11.00 15.98 11.07L15.98 11.07L15.98 11.07Q15.86 11.13 15.78 11.06L15.78 11.06L15.78 11.06Q15.76 11.06 15.76 11.07L15.76 11.07L15.76 11.05L15.76 11.05Q15.69 10.63 15.64 10.21L15.64 10.21L15.64 10.21Q15.58 9.79 15.54 9.37L15.54 9.37L15.54 9.37Q15.53 9.30 15.52 9.23L15.52 9.23L15.52 9.23Q15.51 9.17 15.50 9.10L15.50 9.10L15.50 9.10Q15.43 8.68 15.41 8.26L15.41 8.26L15.41 8.26Q15.39 7.84 15.40 7.41ZM18.31 7.41L18.31 7.41L18.31 7.41Q18.27 6.65 18.28 5.92L18.28 5.92L18.28 5.92Q18.30 5.18 18.35 4.42L18.35 4.42L18.35 4.42Q18.35 4.31 18.35 4.19L18.35 4.19L18.35 4.19Q18.35 4.06 18.37 3.95L18.37 3.95L18.37 3.95Q18.40 3.46 18.39 2.90L18.39 2.90L18.39 2.90Q18.38 2.34 18.48 1.85L18.48 1.85L18.48 1.85Q18.51 1.78 18.65 1.60L18.65 1.60L18.65 1.60Q18.79 1.43 18.94 1.27L18.94 1.27L18.94 1.27Q18.97 1.20 19.00 1.14L19.00 1.14L19.00 1.14Q19.03 1.08 19.07 1.01L19.07 1.01L19.07 1.01Q19.21 0.81 19.40 0.62L19.40 0.62L19.40 0.62Q19.59 0.42 19.84 0.35L19.84 0.35L19.91 0.35L19.91 0.35Q19.98 0.38 19.99 0.43L19.99 0.43L19.99 0.43Q20.05 0.77 19.98 1.13L19.98 1.13L19.98 1.13Q19.92 1.50 19.87 1.82L19.87 1.82L19.87 1.82Q19.77 2.45 19.66 3.07L19.66 3.07L19.66 3.07Q19.54 3.68 19.45 4.31L19.45 4.31L19.45 4.31Q19.43 5.57 19.55 6.80L19.55 6.80L19.55 6.80Q19.67 8.04 19.89 9.25L19.89 9.25L19.96 9.20L19.96 9.20Q19.96 9.25 19.96 9.30L19.96 9.30L19.96 9.30Q19.95 9.34 19.95 9.39L19.95 9.39L19.95 9.39Q19.92 9.48 19.82 9.63L19.82 9.63L19.82 9.63Q19.73 9.77 19.59 9.93L19.59 9.93L19.59 9.93Q19.60 10.00 19.60 10.08L19.60 10.08L19.60 10.08Q19.60 10.15 19.60 10.22L19.60 10.22L19.60 10.22Q19.60 10.28 19.61 10.30L19.61 10.30L19.61 10.30Q19.59 10.32 19.58 10.33L19.58 10.33L19.58 10.33Q19.57 10.35 19.54 10.36L19.54 10.36L19.54 10.36Q19.49 10.46 19.38 10.61L19.38 10.61L19.38 10.61Q19.26 10.75 19.14 10.88L19.14 10.88L19.14 10.88Q19.01 11.00 18.89 11.07L18.89 11.07L18.89 11.07Q18.77 11.13 18.69 11.06L18.69 11.06L18.69 11.06Q18.68 11.06 18.68 11.07L18.68 11.07L18.68 11.05L18.68 11.05Q18.61 10.63 18.55 10.21L18.55 10.21L18.55 10.21Q18.49 9.79 18.45 9.37L18.45 9.37L18.45 9.37Q18.44 9.30 18.43 9.23L18.43 9.23L18.43 9.23Q18.42 9.17 18.41 9.10L18.41 9.10L18.41 9.10Q18.34 8.68 18.32 8.26L18.32 8.26L18.32 8.26Q18.30 7.84 18.31 7.41ZM21.52 6.82L21.52 6.82L21.52 6.82Q21.71 6.48 21.97 6.17L21.97 6.17L21.97 6.17Q22.23 5.87 22.53 5.62L22.53 5.62L22.53 5.62Q22.83 5.38 23.17 5.21L23.17 5.21L23.17 5.21Q23.51 5.05 23.84 5.00L23.84 5.00L23.84 5.00Q24.23 4.73 24.68 4.55L24.68 4.55L24.68 4.55Q25.12 4.37 25.42 4.52L25.42 4.52L25.42 4.52Q25.82 4.75 26.04 5.05L26.04 5.05L26.04 5.05Q26.19 5.10 26.32 5.18L26.32 5.18L26.32 5.18Q26.36 5.22 26.40 5.26L26.40 5.26L26.40 5.26Q26.45 5.31 26.49 5.36L26.49 5.36L26.49 5.36Q26.64 5.22 26.77 5.17L26.77 5.17L26.77 5.17Q26.89 5.11 26.92 5.25L26.92 5.25L26.92 5.25Q26.98 5.66 26.99 6.05L26.99 6.05L26.99 6.05Q27.01 6.45 26.99 6.86L26.99 6.86L26.99 6.86Q27.01 6.92 27.01 6.96L27.01 6.96L27.01 6.96Q27.02 7 27.02 7.04L27.02 7.04L27.02 7.04Q27.02 7.31 27.05 7.60L27.05 7.60L27.05 7.60Q27.09 7.90 26.96 8.12L26.96 8.12L26.96 8.12Q26.96 8.19 26.96 8.27L26.96 8.27L26.96 8.27Q26.95 8.34 26.95 8.41L26.95 8.41L26.95 8.41Q27.02 8.95 27.03 9.39L27.03 9.39L27.03 9.39Q27.06 9.53 27.08 9.67L27.08 9.67L27.08 9.67Q27.10 9.80 27.12 9.93L27.12 9.93L27.12 9.93Q27.13 10.01 27.19 10.08L27.19 10.08L27.13 10.14L27.13 10.14Q27.13 10.39 27.08 10.62L27.08 10.62L27.08 10.62Q27.02 10.85 26.85 11.06L26.85 11.06L26.85 11.06Q26.81 11.10 26.72 11.19L26.72 11.19L26.72 11.19Q26.63 11.28 26.52 11.37L26.52 11.37L26.52 11.37Q26.42 11.45 26.32 11.49L26.32 11.49L26.32 11.49Q26.22 11.52 26.15 11.45L26.15 11.45L26.15 11.45Q26.14 11.44 26.14 11.42L26.14 11.42L26.14 11.42Q26.14 11.42 26.12 11.41L26.12 11.41L26.12 11.41Q26.11 11.41 26.10 11.42L26.10 11.42L26.05 11.42L26.05 11.42Q25.96 11.42 25.93 11.40L25.93 11.40L25.93 11.40Q25.86 11.19 25.86 10.91L25.86 10.91L25.86 10.91Q25.86 10.64 25.83 10.44L25.83 10.44L25.83 10.44Q25.80 10.23 25.78 10.02L25.78 10.02L25.78 10.02Q25.76 9.81 25.73 9.59L25.73 9.59L25.73 9.59Q25.37 9.83 24.93 10.00L24.93 10.00L24.93 10.00Q24.50 10.16 24.01 10.30L24.01 10.30L24.01 10.30Q23.93 10.33 23.85 10.35L23.85 10.35L23.85 10.35Q23.77 10.37 23.69 10.40L23.69 10.40L23.69 10.40Q23.48 10.51 23.26 10.61L23.26 10.61L23.26 10.61Q23.04 10.70 22.83 10.74L22.83 10.74L22.83 10.74Q22.61 10.78 22.40 10.75L22.40 10.75L22.40 10.75Q22.19 10.72 21.98 10.57L21.98 10.57L21.98 10.57Q21.60 10.30 21.29 9.93L21.29 9.93L21.29 9.93Q20.99 9.56 20.83 9.13L20.83 9.13L20.83 9.13Q20.78 8.99 20.79 8.82L20.79 8.82L20.79 8.82Q20.80 8.65 20.86 8.47L20.86 8.47L20.86 8.47Q20.78 8.13 20.83 7.92L20.83 7.92L20.83 7.92Q20.92 7.62 21.10 7.34L21.10 7.34L21.10 7.34Q21.28 7.07 21.52 6.82ZM23.04 9.21L23.04 9.21L23.04 9.21Q23.21 9.24 23.53 9.21L23.53 9.21L23.53 9.21Q23.86 9.17 24.23 9.07L24.23 9.07L24.23 9.07Q24.61 8.97 24.99 8.82L24.99 8.82L24.99 8.82Q25.37 8.67 25.63 8.47L25.63 8.47L25.63 8.47Q25.61 8.15 25.59 7.81L25.59 7.81L25.59 7.81Q25.56 7.48 25.54 7.14L25.54 7.14L25.54 7.14Q25.52 7.03 25.52 6.92L25.52 6.92L25.52 6.92Q25.52 6.79 25.51 6.68L25.51 6.68L25.45 6.72L25.45 6.72Q25.44 6.65 25.44 6.57L25.44 6.57L25.44 6.57Q25.44 6.48 25.44 6.41L25.44 6.41L25.44 6.41Q25.41 6.34 25.38 6.28L25.38 6.28L25.38 6.28Q25.34 6.22 25.31 6.15L25.31 6.15L25.19 6.26L25.19 6.26Q25.14 6.19 25.14 6.10L25.14 6.10L25.14 6.10Q25.14 6.01 25.12 5.94L25.12 5.94L25.12 5.94Q24.86 5.85 24.64 5.80L24.64 5.80L24.64 5.80Q24.42 5.75 24.21 5.74L24.21 5.74L24.21 5.74Q24.01 5.74 23.82 5.77L23.82 5.77L23.82 5.77Q23.63 5.80 23.44 5.84L23.44 5.84L23.44 5.84Q22.88 6.06 22.33 6.82L22.33 6.82L22.33 6.82Q22.13 7.06 21.95 7.39L21.95 7.39L21.95 7.39Q21.92 7.81 22.04 8.22L22.04 8.22L22.04 8.22Q22.12 8.34 22.23 8.51L22.23 8.51L22.23 8.51Q22.33 8.68 22.46 8.83L22.46 8.83L22.46 8.83Q22.58 8.97 22.73 9.09L22.73 9.09L22.73 9.09Q22.88 9.20 23.04 9.21ZM28.11 2.09L28.11 2.09L28.11 2.09Q28.10 2.02 28.08 1.97L28.08 1.97L28.08 1.97Q28.07 1.92 28.06 1.88L28.06 1.88L28 1.90L28 1.90Q28.01 1.88 28.02 1.83L28.02 1.83L28.02 1.83Q28.03 1.79 28.06 1.76L28.06 1.76L28.06 1.76Q28.10 1.65 28.20 1.50L28.20 1.50L28.20 1.50Q28.29 1.36 28.41 1.23L28.41 1.23L28.41 1.23Q28.53 1.11 28.67 1.03L28.67 1.03L28.67 1.03Q28.81 0.95 28.95 0.98L28.95 0.98L28.95 0.98Q28.98 1.04 28.99 1.08L28.99 1.08L28.99 1.08Q28.99 1.13 29.02 1.20L29.02 1.20L29.02 1.20Q29.18 1.04 29.34 0.93L29.34 0.93L29.34 0.93Q29.50 0.83 29.57 0.90L29.57 0.90L29.60 0.87L29.60 0.99L29.58 0.99L29.58 0.99Q29.55 1.32 29.51 1.60L29.51 1.60L29.51 1.60Q29.47 1.88 29.44 2.20L29.44 2.20L29.44 2.20Q29.41 2.52 29.44 2.84L29.44 2.84L29.44 2.84Q29.46 3.16 29.46 3.49L29.46 3.49L29.46 3.49Q29.44 3.85 29.43 4.20L29.43 4.20L29.43 4.20Q29.41 4.55 29.40 4.91L29.40 4.91L29.41 4.91L29.41 4.91Q29.50 5.12 29.55 5.35L29.55 5.35L29.55 5.35Q29.60 5.59 29.62 5.84L29.62 5.84L29.62 5.84Q30.00 5.59 30.42 5.42L30.42 5.42L30.42 5.42Q30.77 5.25 31.14 5.12L31.14 5.12L31.14 5.12Q31.50 5.00 31.88 4.96L31.88 4.96L31.88 4.96Q32.13 4.91 32.28 4.93L32.28 4.93L32.30 4.93L32.30 4.93Q32.31 4.93 32.32 4.93L32.32 4.93L32.32 4.93Q32.33 4.94 32.35 4.94L32.35 4.94L32.35 4.94Q32.37 5.01 32.35 5.06L32.35 5.06L32.35 5.06Q32.34 5.11 32.31 5.18L32.31 5.18L32.31 5.18Q32.42 5.15 32.57 5.13L32.57 5.13L32.57 5.13Q32.72 5.11 32.86 5.10L32.86 5.10L32.86 5.10Q33.07 4.96 33.12 5.08L33.12 5.08L33.19 5.08L33.19 5.08Q33.33 5.11 33.27 5.23L33.27 5.23L33.27 5.23Q33.21 5.35 33.18 5.42L33.18 5.42L33.18 5.42Q33.17 5.43 33.16 5.45L33.16 5.45L33.16 5.45Q33.15 5.46 33.14 5.47L33.14 5.47L33.14 5.47Q33.12 5.49 33.10 5.49L33.10 5.49L33.10 5.49Q33.05 6.12 33.12 6.73L33.12 6.73L33.12 6.73Q33.18 7.35 33.21 7.98L33.21 7.98L33.21 8.32L33.21 8.32Q33.22 8.36 33.22 8.40L33.22 8.40L33.22 8.40Q33.22 8.43 33.24 8.47L33.24 8.47L33.24 8.47Q33.28 8.76 33.36 9.13L33.36 9.13L33.36 9.13Q33.43 9.49 33.38 9.81L33.38 9.81L33.38 9.93L33.38 9.93Q33.36 10.01 33.24 10.18L33.24 10.18L33.24 10.18Q33.12 10.35 32.98 10.50L32.98 10.50L32.98 10.50Q32.83 10.65 32.68 10.73L32.68 10.73L32.68 10.73Q32.54 10.81 32.45 10.72L32.45 10.72L32.45 10.72Q32.35 10.54 32.33 10.32L32.33 10.32L32.33 10.32Q32.31 10.32 32.30 10.33L32.30 10.33L32.30 10.33Q32.30 10.14 32.21 9.93L32.21 9.93L32.21 9.93Q32.20 9.88 32.19 9.85L32.19 9.85L32.19 9.85Q32.19 9.81 32.17 9.77L32.17 9.77L32.17 9.77Q32.14 9.77 32.12 9.77L32.12 9.77L32.12 9.77Q32.09 9.76 32.07 9.73L32.07 9.73L32.07 9.51L32.07 9.51Q32.06 9.46 32.05 9.43L32.05 9.43L32.05 9.43Q32.05 9.39 32.03 9.35L32.03 9.35L32.03 9.35Q31.96 9.10 31.87 8.69L31.87 8.69L31.87 8.69Q31.78 8.27 31.71 7.83L31.71 7.83L31.71 7.83Q31.64 7.39 31.61 6.96L31.61 6.96L31.61 6.96Q31.57 6.54 31.58 6.26L31.58 6.26L31.58 6.24L31.58 6.24Q31.58 6.23 31.59 6.22L31.59 6.22L31.59 6.22Q31.60 6.20 31.60 6.19L31.60 6.19L31.60 6.19Q31.43 6.15 31.28 6.15L31.28 6.15L30.77 6.27L30.77 6.27Q30.49 6.41 30.21 6.59L30.21 6.59L30.21 6.59Q29.93 6.76 29.64 6.93L29.64 6.93L29.64 6.93Q29.62 7.28 29.61 7.62L29.61 7.62L29.61 7.62Q29.60 7.95 29.60 8.26L29.60 8.26L29.60 8.26Q29.61 8.34 29.62 8.42L29.62 8.42L29.62 8.42Q29.62 8.50 29.65 8.58L29.65 8.58L29.65 8.58Q29.64 8.55 29.64 8.53L29.64 8.53L29.64 8.53Q29.64 8.50 29.65 8.53L29.65 8.53L29.65 8.53Q29.74 8.85 29.80 9.26L29.80 9.26L29.80 9.26Q29.86 9.67 29.71 10.00L29.71 10.00L29.71 10.00Q29.58 10.22 29.36 10.46L29.36 10.46L29.36 10.46Q29.13 10.70 28.85 10.72L28.85 10.72L28.85 10.72Q28.76 10.68 28.71 10.49L28.71 10.49L28.71 10.49Q28.56 10.71 28.33 10.88L28.33 10.88L28.33 10.88Q28.10 11.06 27.99 10.95L27.99 10.95L27.99 10.95Q27.96 10.77 27.99 10.58L27.99 10.58L27.99 10.58Q28.01 10.39 28.04 10.21L28.04 10.21L28.04 10.21Q28.04 8.60 27.96 6.96L27.96 6.96L27.96 6.96Q27.92 6.41 27.92 5.81L27.92 5.81L27.92 5.81Q27.92 5.19 27.94 4.56L27.94 4.56L27.94 4.56Q27.96 3.92 28.01 3.29L28.01 3.29L28.01 3.29Q28.06 2.66 28.11 2.09ZM34.66 6.82L34.66 6.82L34.66 6.82Q34.86 6.48 35.12 6.17L35.12 6.17L35.12 6.17Q35.38 5.87 35.68 5.62L35.68 5.62L35.68 5.62Q35.98 5.38 36.32 5.21L36.32 5.21L36.32 5.21Q36.65 5.05 36.99 5.00L36.99 5.00L36.99 5.00Q37.38 4.73 37.82 4.55L37.82 4.55L37.82 4.55Q38.26 4.37 38.57 4.52L38.57 4.52L38.57 4.52Q38.96 4.75 39.19 5.05L39.19 5.05L39.19 5.05Q39.34 5.10 39.47 5.18L39.47 5.18L39.47 5.18Q39.51 5.22 39.55 5.26L39.55 5.26L39.55 5.26Q39.59 5.31 39.63 5.36L39.63 5.36L39.63 5.36Q39.79 5.22 39.91 5.17L39.91 5.17L39.91 5.17Q40.04 5.11 40.07 5.25L40.07 5.25L40.07 5.25Q40.12 5.66 40.14 6.05L40.14 6.05L40.14 6.05Q40.15 6.45 40.14 6.86L40.14 6.86L40.14 6.86Q40.15 6.92 40.16 6.96L40.16 6.96L40.16 6.96Q40.17 7 40.17 7.04L40.17 7.04L40.17 7.04Q40.17 7.31 40.20 7.60L40.20 7.60L40.20 7.60Q40.24 7.90 40.11 8.12L40.11 8.12L40.11 8.12Q40.11 8.19 40.10 8.27L40.10 8.27L40.10 8.27Q40.10 8.34 40.10 8.41L40.10 8.41L40.10 8.41Q40.17 8.95 40.18 9.39L40.18 9.39L40.18 9.39Q40.21 9.53 40.23 9.67L40.23 9.67L40.23 9.67Q40.25 9.80 40.26 9.93L40.26 9.93L40.26 9.93Q40.28 10.01 40.33 10.08L40.33 10.08L40.28 10.14L40.28 10.14Q40.28 10.39 40.22 10.62L40.22 10.62L40.22 10.62Q40.17 10.85 40.00 11.06L40.00 11.06L40.00 11.06Q39.96 11.10 39.87 11.19L39.87 11.19L39.87 11.19Q39.77 11.28 39.67 11.37L39.67 11.37L39.67 11.37Q39.56 11.45 39.47 11.49L39.47 11.49L39.47 11.49Q39.37 11.52 39.30 11.45L39.30 11.45L39.30 11.45Q39.28 11.44 39.28 11.42L39.28 11.42L39.28 11.42Q39.28 11.42 39.27 11.41L39.27 11.41L39.27 11.41Q39.26 11.41 39.24 11.42L39.24 11.42L39.20 11.42L39.20 11.42Q39.10 11.42 39.07 11.40L39.07 11.40L39.07 11.40Q39.00 11.19 39.00 10.91L39.00 10.91L39.00 10.91Q39.00 10.64 38.98 10.44L38.98 10.44L38.98 10.44Q38.95 10.23 38.93 10.02L38.93 10.02L38.93 10.02Q38.91 9.81 38.88 9.59L38.88 9.59L38.88 9.59Q38.51 9.83 38.08 10.00L38.08 10.00L38.08 10.00Q37.65 10.16 37.16 10.30L37.16 10.30L37.16 10.30Q37.07 10.33 36.99 10.35L36.99 10.35L36.99 10.35Q36.92 10.37 36.83 10.40L36.83 10.40L36.83 10.40Q36.62 10.51 36.41 10.61L36.41 10.61L36.41 10.61Q36.19 10.70 35.97 10.74L35.97 10.74L35.97 10.74Q35.76 10.78 35.55 10.75L35.55 10.75L35.55 10.75Q35.34 10.72 35.13 10.57L35.13 10.57L35.13 10.57Q34.75 10.30 34.44 9.93L34.44 9.93L34.44 9.93Q34.13 9.56 33.98 9.13L33.98 9.13L33.98 9.13Q33.92 8.99 33.94 8.82L33.94 8.82L33.94 8.82Q33.95 8.65 34.01 8.47L34.01 8.47L34.01 8.47Q33.92 8.13 33.98 7.92L33.98 7.92L33.98 7.92Q34.06 7.62 34.24 7.34L34.24 7.34L34.24 7.34Q34.43 7.07 34.66 6.82ZM36.19 9.21L36.19 9.21L36.19 9.21Q36.36 9.24 36.68 9.21L36.68 9.21L36.68 9.21Q37.00 9.17 37.38 9.07L37.38 9.07L37.38 9.07Q37.76 8.97 38.14 8.82L38.14 8.82L38.14 8.82Q38.51 8.67 38.78 8.47L38.78 8.47L38.78 8.47Q38.75 8.15 38.73 7.81L38.73 7.81L38.73 7.81Q38.71 7.48 38.68 7.14L38.68 7.14L38.68 7.14Q38.67 7.03 38.67 6.92L38.67 6.92L38.67 6.92Q38.67 6.79 38.65 6.68L38.65 6.68L38.60 6.72L38.60 6.72Q38.58 6.65 38.58 6.57L38.58 6.57L38.58 6.57Q38.58 6.48 38.58 6.41L38.58 6.41L38.58 6.41Q38.56 6.34 38.52 6.28L38.52 6.28L38.52 6.28Q38.49 6.22 38.46 6.15L38.46 6.15L38.33 6.26L38.33 6.26Q38.29 6.19 38.29 6.10L38.29 6.10L38.29 6.10Q38.29 6.01 38.26 5.94L38.26 5.94L38.26 5.94Q38.01 5.85 37.79 5.80L37.79 5.80L37.79 5.80Q37.56 5.75 37.35 5.74L37.35 5.74L37.35 5.74Q37.16 5.74 36.97 5.77L36.97 5.77L36.97 5.77Q36.78 5.80 36.58 5.84L36.58 5.84L36.58 5.84Q36.02 6.06 35.48 6.82L35.48 6.82L35.48 6.82Q35.28 7.06 35.10 7.39L35.10 7.39L35.10 7.39Q35.07 7.81 35.18 8.22L35.18 8.22L35.18 8.22Q35.27 8.34 35.37 8.51L35.37 8.51L35.37 8.51Q35.48 8.68 35.60 8.83L35.60 8.83L35.60 8.83Q35.73 8.97 35.88 9.09L35.88 9.09L35.88 9.09Q36.02 9.20 36.19 9.21ZM44.48 5.71L44.48 5.71L44.48 5.71Q44.06 5.71 43.61 5.94L43.61 5.94L43.61 5.94Q43.16 6.17 42.78 6.40L42.78 6.40L42.78 6.40Q42.78 7.18 42.86 7.95L42.86 7.95L42.86 7.95Q42.94 8.71 43.19 9.45L43.19 9.45L43.22 9.42L43.22 9.42Q43.22 9.49 43.23 9.53L43.23 9.53L43.23 9.53Q43.23 9.56 43.25 9.60L43.25 9.60L43.25 9.60Q43.27 9.63 43.27 9.67L43.27 9.67L43.27 9.67Q43.29 9.69 43.29 9.70L43.29 9.70L43.29 9.70Q43.29 9.70 43.30 9.72L43.30 9.72L43.30 9.72Q43.33 9.81 43.23 9.99L43.23 9.99L43.23 9.99Q43.12 10.16 42.97 10.31L42.97 10.31L42.97 10.31Q42.83 10.46 42.67 10.55L42.67 10.55L42.67 10.55Q42.50 10.64 42.42 10.60L42.42 10.60L42.41 10.61L42.41 10.61Q42.41 10.60 42.39 10.60L42.39 10.60L42.39 10.60Q42.39 10.60 42.39 10.58L42.39 10.58L42.39 10.58Q42.25 10.29 42.14 9.93L42.14 9.93L42.14 9.93Q42.07 10.02 41.97 10.14L41.97 10.14L41.97 10.14Q41.87 10.25 41.78 10.32L41.78 10.32L41.78 10.32Q41.68 10.40 41.59 10.44L41.59 10.44L41.59 10.44Q41.50 10.47 41.43 10.44L41.43 10.44L41.40 10.47L41.40 10.47Q41.38 10.43 41.38 10.33L41.38 10.33L41.38 10.33Q41.29 9.70 41.22 8.99L41.22 8.99L41.22 8.99Q41.15 8.29 41.13 7.56L41.13 7.56L41.13 7.56Q41.12 6.83 41.16 6.12L41.16 6.12L41.16 6.12Q41.20 5.40 41.30 4.77L41.30 4.77L41.30 4.66L41.30 4.66Q41.30 4.66 41.33 4.65L41.33 4.65L41.33 4.65Q41.37 4.56 41.51 4.39L41.51 4.39L41.51 4.39Q41.65 4.21 41.80 4.08L41.80 4.08L41.80 4.08Q41.94 3.95 42.07 3.89L42.07 3.89L42.07 3.89Q42.20 3.84 42.22 3.98L42.22 3.98L42.22 3.98Q42.22 4.21 42.22 4.45L42.22 4.45L42.22 4.45Q42.21 4.68 42.20 4.91L42.20 4.91L42.20 4.91Q42.34 4.76 42.50 4.64L42.50 4.64L42.50 4.64Q42.67 4.52 42.85 4.55L42.85 4.55L42.85 4.55Q42.91 4.80 42.88 5.09L42.88 5.09L42.88 5.09Q42.84 5.38 42.81 5.66L42.81 5.66L42.81 5.66Q43.09 5.40 43.41 5.17L43.41 5.17L43.41 5.17Q43.72 4.94 44.07 4.77L44.07 4.77L44.07 4.77Q44.42 4.59 44.79 4.49L44.79 4.49L44.79 4.49Q45.15 4.40 45.51 4.41L45.51 4.41L45.51 4.41Q45.63 4.41 45.76 4.42L45.76 4.42L45.76 4.42Q45.89 4.42 46.00 4.49L46.00 4.49L46.00 4.49Q46.28 4.70 46.39 5.05L46.39 5.05L46.39 5.05Q46.49 5.39 46.54 5.71L46.54 5.71L46.54 5.71Q46.61 6.17 46.65 6.64L46.65 6.64L46.65 6.64Q46.69 7.11 46.70 7.57L46.70 7.57L46.70 7.57Q46.70 7.78 46.68 8.03L46.68 8.03L46.68 8.03Q46.65 8.27 46.68 8.47L46.68 8.47L46.68 8.47Q46.70 8.74 46.77 9.02L46.77 9.02L46.77 9.02Q46.83 9.30 46.79 9.56L46.79 9.56L46.79 9.56Q46.65 9.67 46.52 9.77L46.52 9.77L46.52 9.77Q46.40 9.86 46.27 9.97L46.27 9.97L46.27 9.97Q46.19 10.08 46.08 10.19L46.08 10.19L46.08 10.19Q45.98 10.30 45.88 10.37L45.88 10.37L45.88 10.37Q45.78 10.44 45.69 10.46L45.69 10.46L45.69 10.46Q45.60 10.49 45.54 10.43L45.54 10.43L45.54 10.43Q45.53 10.40 45.53 10.33L45.53 10.33L45.54 10.32L45.54 10.32Q45.54 10.25 45.55 10.19L45.55 10.19L45.55 10.19Q45.56 10.14 45.57 10.07L45.57 10.07L45.57 10.07Q45.46 10.18 45.34 10.22L45.34 10.22L45.34 10.22Q45.22 10.26 45.15 10.18L45.15 10.18L45.15 10.18Q45.14 10.16 45.14 10.12L45.14 10.12L45.16 10.09L45.16 10.09Q45.11 10.11 45.12 10.05L45.12 10.05L45.12 10.05Q45.12 10.00 45.16 9.92L45.16 9.92L45.16 9.92Q45.19 9.84 45.23 9.76L45.23 9.76L45.23 9.76Q45.28 9.67 45.29 9.62L45.29 9.62L45.29 9.62Q45.33 9.42 45.40 9.21L45.40 9.21L45.40 9.21Q45.46 9.00 45.50 8.81L45.50 8.81L45.50 8.81Q45.60 8.27 45.51 7.70L45.51 7.70L45.51 7.70Q45.42 7.13 45.22 6.62L45.22 6.62L45.22 6.62Q45.07 6.26 44.88 6.04L44.88 6.04L44.88 6.04Q44.70 5.82 44.48 5.71Z"></path></g><!----><g data-v-423bf9ae="" id="ea17bc7e-e853-4060-a3f2-86292fec94ca" transform="matrix(Infinity,0,0,Infinity,0,0)" stroke="none" fill="white"></g><!----></svg>